SplineFontDB: 3.2
FontName: NeoFuthark
FullName: NeoFuthark
FamilyName: NeoFuthark
Weight: Regular
Copyright: Copyright (c) 2021, Caj Larsson
UComments: "2021-6-6: Created with FontForge (http://fontforge.org)"
Version: 001.000
ItalicAngle: 0
UnderlinePosition: -102
UnderlineWidth: 51
Ascent: 819
Descent: 205
InvalidEm: 0
LayerCount: 2
Layer: 0 0 "Back" 1
Layer: 1 0 "Fore" 0
XUID: [1021 993 1476599607 11257049]
FSType: 0
OS2Version: 0
OS2_WeightWidthSlopeOnly: 0
OS2_UseTypoMetrics: 1
CreationTime: 1622957551
ModificationTime: 1623055257
PfmFamily: 17
TTFWeight: 400
TTFWidth: 5
LineGap: 92
VLineGap: 0
OS2TypoAscent: 0
OS2TypoAOffset: 1
OS2TypoDescent: 0
OS2TypoDOffset: 1
OS2TypoLinegap: 92
OS2WinAscent: 0
OS2WinAOffset: 1
OS2WinDescent: 0
OS2WinDOffset: 1
HheadAscent: 0
HheadAOffset: 1
HheadDescent: 0
HheadDOffset: 1
OS2Vendor: 'PfEd'
MarkAttachClasses: 1
DEI: 91125
LangName: 1033
Encoding: Custom
Compacted: 1
UnicodeInterp: none
NameList: AGL For New Fonts
DisplaySize: -48
AntiAlias: 1
FitToEm: 0
WidthSeparation: 120
WinInfo: 0 17 20
BeginPrivate: 0
EndPrivate
TeXData: 1 0 0 346030 173015 115343 0 1048576 115343 783286 444596 497025 792723 393216 433062 380633 303038 157286 324010 404750 52429 2506097 1059062 262144
BeginChars: 26 26

StartChar: fehu
Encoding: 0 5792 0
Width: 299
VWidth: 0
Flags: HW
HStem: 649 47<193.072 240.928>
VStem: 56 47<53.0716 364 431 695.928> 193 48<649.065 695.928>
LayerCount: 2
Fore
SplineSet
193 672 m 0
 193 685 204 696 217 696 c 0
 230 696 241 685 241 672 c 0
 241 659 230 649 217 649 c 0
 204 649 193 659 193 672 c 0
56 77 m 2
 56 189 l 1
 56 265 l 1
 56 339 l 1
 56 410 l 1
 56 483 l 1
 56 560 l 1
 56 672 l 2
 56 685 66 696 79 696 c 0
 90 696 103 685 103 672 c 2
 103 560 l 1
 103 483 l 1
 103 431 l 1
 212 540 l 2
 216 544 222 547 228 547 c 0
 234 547 241 544 245 540 c 0
 249 536 252 530 252 524 c 0
 252 518 249 511 245 507 c 2
 103 364 l 1
 103 339 l 1
 103 265 l 1
 103 189 l 1
 103 77 l 2
 103 64 92 53 79 53 c 0
 66 53 56 64 56 77 c 2
EndSplineSet
EndChar

StartChar: uni16A0
Encoding: -1 5792 1
Width: 333
VWidth: 0
Flags: W
HStem: 665 48<210.214 258.803>
VStem: 70 48<54.2145 373 441 712.786> 210 49<665.18 712.786>
LayerCount: 2
Fore
SplineSet
210 688 m 0
 210 701 222 713 235 713 c 0
 248 713 259 701 259 688 c 0
 259 675 248 665 235 665 c 0
 222 665 210 675 210 688 c 0
70 79 m 2
 70 194 l 1
 70 271 l 1
 70 347 l 1
 70 420 l 1
 70 495 l 1
 70 573 l 1
 70 688 l 2
 70 701 80 713 93 713 c 0
 104 713 118 701 118 688 c 2
 118 573 l 1
 118 495 l 1
 118 441 l 1
 229 553 l 2
 233 557 240 560 246 560 c 0
 252 560 259 557 263 553 c 0
 267 549 270 543 270 537 c 0
 270 531 267 523 263 519 c 2
 118 373 l 1
 118 347 l 1
 118 271 l 1
 118 194 l 1
 118 79 l 2
 118 66 106 54 93 54 c 0
 80 54 70 66 70 79 c 2
EndSplineSet
Validated: 1
EndChar

StartChar: uruz
Encoding: 2 5794 2
Width: 369
VWidth: 0
Flags: HW
HStem: 54 48<263.197 310.803>
VStem: 56 48<54.078 630> 263 48<54.078 101.935 258.072 493.868>
LayerCount: 2
Fore
SplineSet
263 79 m 0
 263 92 274 102 287 102 c 0
 300 102 311 92 311 79 c 0
 311 66 300 54 287 54 c 0
 274 54 263 66 263 79 c 0
56 79 m 2
 56 688 l 2
 56 700 66 713 78 713 c 0
 86 713 92 711 97 706 c 0
 166 637 235 568 304 499 c 0
 308 495 311 486 311 481 c 2
 311 282 l 2
 311 269 300 258 287 258 c 0
 274 258 263 269 263 282 c 0
 263 345 263 409 263 472 c 1
 241 494 221 513 199 535 c 0
 167 567 136 598 104 630 c 1
 104 79 l 2
 104 66 93 54 80 54 c 0
 67 54 56 66 56 79 c 2
EndSplineSet
EndChar

StartChar: uni16A6
Encoding: 3 5798 3
Width: 300
VWidth: 0
Flags: HW
HStem: 279 48<133.065 180.922>
VStem: 56 48<50.078 473 542 708.922> 133 48<279.197 326.803>
LayerCount: 2
Fore
SplineSet
156 327 m 0
 169 327 181 316 181 303 c 0
 181 290 169 279 156 279 c 0
 143 279 133 290 133 303 c 0
 133 316 143 327 156 327 c 0
80 709 m 0
 93 709 104 697 104 684 c 2
 104 569 l 1
 104 542 l 1
 249 396 l 2
 253 392 256 384 256 379 c 0
 256 374 254 365 250 361 c 1
 249 361 l 1
 245 357 238 354 233 354 c 0
 228 354 219 357 215 361 c 2
 104 473 l 1
 104 416 l 1
 104 343 l 1
 104 267 l 1
 104 189 l 1
 104 75 l 2
 104 62 93 50 80 50 c 0
 67 50 56 62 56 75 c 2
 56 189 l 1
 56 267 l 1
 56 343 l 1
 56 416 l 1
 56 490 l 1
 56 569 l 1
 56 684 l 2
 56 697 67 709 80 709 c 0
EndSplineSet
EndChar

StartChar: uni16A8
Encoding: 4 5800 4
Width: 306
VWidth: 0
Flags: HW
HStem: 359 49<208.214 255.82>
VStem: 56 48<54.078 630> 208 48<359.197 407.786>
LayerCount: 2
Fore
SplineSet
256 383 m 0
 256 370 246 359 233 359 c 0
 220 359 208 370 208 383 c 0
 208 396 220 408 233 408 c 0
 246 408 256 396 256 383 c 0
80 709 m 4
 91 709 99 703 104 699 c 6
 249 553 l 2
 253 549 256 541 256 536 c 0
 256 531 253 523 249 519 c 0
 245 515 238 512 233 512 c 0
 228 512 219 515 215 519 c 2
 104 630 l 1
 104 573 l 1
 104 495 l 1
 104 420 l 1
 104 347 l 1
 104 271 l 1
 104 194 l 1
 104 79 l 2
 104 66 93 54 80 54 c 0
 67 54 56 66 56 79 c 2
 56 194 l 1
 56 271 l 1
 56 347 l 1
 56 420 l 1
 56 495 l 1
 56 573 l 1
 56 687 l 6
 56 696 67 709 80 709 c 4
EndSplineSet
EndChar

StartChar: uni16B1
Encoding: 5 5809 5
Width: 306
VWidth: 0
Flags: HW
HStem: 212 49<208.214 255.82>
VStem: 56 48<60.0716 379 447 636 699 708.916> 208 48<212.214 260.803>
LayerCount: 2
Fore
SplineSet
104 636 m 1
 104 580 l 1
 104 501 l 1
 104 447 l 1
 198 542 l 1
 104 636 l 1
258 542 m 0
 258 535 254 529 249 524 c 0
 194 466 104 379 104 379 c 1
 104 353 l 1
 104 278 l 1
 104 199 l 1
 104 84 l 2
 104 71 93 60 80 60 c 0
 67 60 56 71 56 84 c 2
 56 199 l 1
 56 278 l 1
 56 353 l 1
 56 389 l 1
 56 426 l 1
 56 501 l 1
 56 580 l 1
 56 687 l 6
 56 696 67 709 80 709 c 4
 91 709 99 703 104 699 c 6
 104 699 195 615 249 559 c 0
 254 554 258 549 258 542 c 0
233 261 m 0
 246 261 256 250 256 237 c 0
 256 224 246 212 233 212 c 0
 220 212 208 224 208 237 c 0
 208 250 220 261 233 261 c 0
EndSplineSet
EndChar

StartChar: uni16B2
Encoding: 6 5810 6
Width: 346
VWidth: 0
Flags: HW
HStem: 153 48<248.197 295.82>
VStem: 248 48<153.18 200.922>
LayerCount: 2
Fore
SplineSet
272 201 m 2
 273 201 l 2
 286 201 296 189 296 176 c 0
 296 163 286 153 273 153 c 0
 260 153 248 163 248 176 c 0
 248 189 259 201 272 201 c 2
272 614 m 0
 277 614 285 611 289 607 c 0
 294 602 296 597 296 591 c 0
 296 585 294 578 289 573 c 2
 208 493 l 1
 153 436 l 1
 100 383 l 1
 82 367 l 2
 77 362 72 359 66 359 c 0
 60 359 53 362 48 367 c 0
 43 372 41 378 41 384 c 0
 41 390 43 395 48 400 c 2
 65 418 l 1
 118 471 l 1
 174 526 l 1
 255 607 l 2
 259 611 267 614 272 614 c 0
EndSplineSet
EndChar

StartChar: uni16B7
Encoding: 7 5815 7
Width: 490
VWidth: 0
Flags: HW
HStem: 54 49<392.197 440.786>
VStem: 392 49<54.2145 102.803>
LayerCount: 2
Fore
SplineSet
416 103 m 0
 429 103 441 92 441 79 c 0
 441 66 429 54 416 54 c 0
 403 54 392 66 392 79 c 0
 392 92 403 103 416 103 c 0
65 713 m 0
 73 713 81 707 85 700 c 2
 120 640 l 1
 143 601 l 1
 181 534 l 1
 241 432 l 1
 299 534 l 1
 338 601 l 1
 361 640 l 1
 396 700 l 2
 400 707 408 713 416 713 c 0
 419 713 425 712 428 710 c 0
 436 706 441 696 441 688 c 0
 441 684 439 681 437 677 c 2
 403 616 l 1
 380 578 l 1
 345 517 l 1
 340 509 l 1
 306 449 l 1
 269 384 l 1
 241 335 l 1
 233 322 l 1
 195 256 l 1
 187 242 l 1
 181 234 l 1
 155 187 l 1
 143 166 l 1
 120 127 l 1
 85 67 l 2
 81 59 73 54 65 54 c 0
 61 54 56 56 52 58 c 0
 44 62 40 71 40 79 c 0
 40 83 41 87 43 91 c 2
 78 152 l 1
 101 190 l 1
 141 258 l 1
 212 384 l 1
 141 509 l 1
 101 578 l 1
 78 616 l 1
 43 677 l 2
 41 681 40 684 40 688 c 0
 40 696 44 706 52 710 c 0
 55 712 62 713 65 713 c 0
EndSplineSet
EndChar

StartChar: uni16B9
Encoding: 8 5817 8
Width: 299
VWidth: 0
Flags: HW
HStem: 435 48<133.18 180.786>
VStem: 56 48<54.078 630> 133 48<435.214 482.82>
LayerCount: 2
Fore
SplineSet
156 483 m 0
 169 483 181 473 181 460 c 0
 181 447 169 435 156 435 c 0
 143 435 133 447 133 460 c 0
 133 473 143 483 156 483 c 0
56 687 m 2
 56 696 67 709 80 709 c 0
 91 709 99 703 104 699 c 2
 249 553 l 2
 253 549 256 541 256 536 c 0
 256 531 254 523 250 519 c 1
 249 519 l 1
 245 515 238 512 233 512 c 0
 228 512 219 515 215 519 c 2
 104 630 l 1
 104 573 l 1
 104 496 l 1
 104 420 l 1
 104 347 l 1
 104 272 l 1
 104 194 l 1
 104 79 l 2
 104 66 93 54 80 54 c 0
 67 54 56 66 56 79 c 2
 56 194 l 1
 56 272 l 1
 56 347 l 1
 56 420 l 1
 56 496 l 1
 56 573 l 1
 56 687 l 2
EndSplineSet
EndChar

StartChar: uni16BA
Encoding: 9 5818 9
Width: 373
VWidth: 0
Flags: HW
HStem: 54 48<263.197 310.803>
VStem: 56 48<54.078 429 498 712.928> 263 48<54.078 101.935 166.072 270 339 712.922>
LayerCount: 2
Fore
SplineSet
286 102 m 2
 287 102 l 2
 300 102 311 92 311 79 c 0
 311 66 300 54 287 54 c 0
 274 54 263 66 263 79 c 0
 263 92 273 102 286 102 c 2
80 713 m 0
 93 713 104 702 104 689 c 2
 104 574 l 1
 104 498 l 1
 114 487 l 1
 167 434 l 1
 223 379 l 1
 263 339 l 1
 263 439 l 1
 263 688 l 2
 263 701 274 713 287 713 c 0
 300 713 311 701 311 688 c 2
 311 439 l 1
 311 190 l 2
 311 177 300 166 287 166 c 0
 274 166 263 177 263 190 c 2
 263 270 l 1
 189 344 l 1
 133 400 l 1
 104 429 l 1
 104 420 l 1
 104 348 l 1
 104 272 l 1
 104 194 l 1
 104 79 l 2
 104 66 93 54 80 54 c 0
 67 54 56 66 56 79 c 2
 56 194 l 1
 56 272 l 1
 56 348 l 1
 56 420 l 1
 56 496 l 1
 56 574 l 1
 56 689 l 2
 56 702 67 713 80 713 c 0
EndSplineSet
EndChar

StartChar: uni16BE
Encoding: 10 5822 10
Width: 436
VWidth: 0
Flags: HW
HStem: 206 49<346.197 393.803>
VStem: 193 49<54.0716 373 441 712.786> 346 48<206.072 254.922>
LayerCount: 2
Fore
SplineSet
370 255 m 0
 383 255 394 243 394 230 c 0
 394 217 383 206 370 206 c 0
 357 206 346 217 346 230 c 0
 346 243 357 255 370 255 c 0
217 713 m 0
 230 713 242 701 242 688 c 2
 242 573 l 1
 242 495 l 1
 242 419 l 1
 242 347 l 1
 242 272 l 1
 242 193 l 1
 242 78 l 2
 242 65 231 54 218 54 c 2
 217 54 l 2
 204 54 193 65 193 78 c 2
 193 193 l 1
 193 272 l 1
 193 347 l 1
 193 373 l 1
 48 518 l 2
 44 522 41 530 41 536 c 0
 41 542 44 549 48 553 c 0
 52 557 59 560 65 560 c 0
 71 560 78 557 82 553 c 2
 193 441 l 1
 193 495 l 1
 193 573 l 1
 193 688 l 2
 193 701 204 713 217 713 c 0
EndSplineSet
EndChar

StartChar: uni16C1
Encoding: 11 5825 11
Width: 167
VWidth: 0
Flags: HW
HStem: 54 49<56.1971 104.786>
VStem: 56 49<54.2145 102.803 229.214 712.786>
LayerCount: 2
Fore
SplineSet
80 103 m 0
 93 103 105 92 105 79 c 0
 105 66 93 54 80 54 c 0
 67 54 56 66 56 79 c 0
 56 92 67 103 80 103 c 0
80 713 m 0
 93 713 105 701 105 688 c 2
 105 509 l 1
 105 433 l 1
 105 254 l 2
 105 241 93 229 80 229 c 0
 67 229 56 241 56 254 c 2
 56 433 l 1
 56 509 l 1
 56 688 l 2
 56 701 67 713 80 713 c 0
EndSplineSet
EndChar

StartChar: uni16C3
Encoding: 12 5827 12
Width: 591
VWidth: 0
Flags: HW
HStem: 54 48<290.214 338.803>
VStem: 290 49<54.2145 101.82>
LayerCount: 2
Fore
SplineSet
315 102 m 4
 328 102 339 92 339 79 c 4
 339 66 328 54 315 54 c 4
 302 54 290 66 290 79 c 4
 290 92 302 102 315 102 c 4
315 517 m 4
 320 517 328 514 332 510 c 6
 413 428 l 5
 468 373 l 5
 521 319 l 5
 539 303 l 6
 543 299 546 292 546 286 c 4
 546 280 543 272 539 268 c 4
 535 264 527 261 521 261 c 4
 515 261 508 264 504 268 c 6
 488 286 l 5
 434 339 l 5
 378 394 l 5
 297 475 l 6
 293 479 290 487 290 493 c 4
 290 499 293 506 297 510 c 4
 301 514 310 517 315 517 c 4
267 713 m 4
 272 713 280 710 284 706 c 4
 288 702 291 694 291 688 c 4
 291 682 288 676 284 672 c 6
 203 590 l 5
 148 535 l 5
 94 481 l 5
 148 428 l 5
 203 373 l 5
 284 292 l 6
 288 288 291 280 291 274 c 4
 291 268 288 261 284 257 c 4
 280 253 273 250 267 250 c 4
 261 250 254 253 250 257 c 6
 169 338 l 5
 113 394 l 5
 60 447 l 5
 43 464 l 6
 39 468 36 475 36 481 c 4
 36 487 39 495 43 499 c 6
 60 516 l 5
 113 569 l 5
 169 625 l 5
 250 706 l 6
 254 710 262 713 267 713 c 4
EndSplineSet
EndChar

StartChar: uni16C7
Encoding: 13 5831 13
Width: 434
VWidth: 0
Flags: HW
HStem: 512 48<340.078 387.935>
VStem: 188 48<137 712.922> 340 48<512.197 559.803>
LayerCount: 2
Fore
SplineSet
365 560 m 4
 378 560 388 549 388 536 c 4
 388 523 378 512 365 512 c 4
 352 512 340 523 340 536 c 4
 340 549 352 560 365 560 c 4
190 61 m 6
 42 214 l 6
 38 218 35 226 35 231 c 4
 35 236 38 244 42 248 c 4
 46 252 55 255 60 255 c 4
 65 255 72 252 76 248 c 6
 188 137 l 5
 188 194 l 5
 188 272 l 5
 188 347 l 5
 188 420 l 5
 188 496 l 5
 188 573 l 5
 188 688 l 6
 188 701 199 713 212 713 c 4
 225 713 236 701 236 688 c 6
 236 573 l 5
 236 496 l 5
 236 420 l 5
 236 347 l 5
 236 272 l 5
 236 194 l 5
 236 79 l 6
 236 70 227 55 214 54 c 4
 203 53 195 56 190 61 c 6
EndSplineSet
EndChar

StartChar: uni16C8
Encoding: 14 5832 14
Width: 459
VWidth: 0
Flags: HW
HStem: 55 48<361.072 408.928>
VStem: 56 48<137 631> 361 48<55.0716 102.928>
LayerCount: 2
Fore
SplineSet
385 103 m 0
 398 103 409 92 409 79 c 0
 409 66 398 55 385 55 c 0
 372 55 361 66 361 79 c 0
 361 92 372 103 385 103 c 0
56 79 m 0
 56 123 56 194 56 194 c 1
 56 272 l 1
 56 347 l 1
 56 420 l 1
 56 496 l 1
 56 574 l 1
 56 687 l 6
 56 696 67 709 80 709 c 4
 91 709 99 704 104 699 c 6
 233 570 l 1
 368 706 l 2
 372 710 380 713 385 713 c 0
 390 713 399 710 403 706 c 0
 407 702 410 694 410 689 c 0
 410 684 407 676 403 672 c 2
 403 672 310 579 250 519 c 0
 244 514 238 512 233 512 c 0
 228 512 221 514 215 519 c 2
 104 631 l 1
 104 574 l 1
 104 496 l 1
 104 420 l 1
 104 347 l 1
 104 272 l 1
 104 194 l 1
 104 137 l 1
 215 249 l 2
 219 253 228 256 233 256 c 0
 238 256 245 253 249 249 c 1
 250 249 l 1
 254 245 256 236 256 231 c 0
 256 226 253 218 249 214 c 2
 249 214 156 120 97 61 c 0
 90 54 76 54 69 57 c 0
 63 59 56 68 56 79 c 0
EndSplineSet
EndChar

StartChar: uni16C9
Encoding: 15 5833 15
Width: 430
VWidth: 0
Flags: HW
HStem: 665 48<189.072 236.928>
VStem: 189 48<54.0716 527 665.072 712.928>
LayerCount: 2
Fore
SplineSet
212 713 m 2
 213 713 l 2
 226 713 237 702 237 689 c 0
 237 676 226 665 213 665 c 0
 200 665 189 676 189 689 c 0
 189 702 199 713 212 713 c 2
189 527 m 1
 44 672 l 2
 40 676 37 684 37 689 c 0
 37 694 40 702 44 706 c 0
 48 710 56 713 61 713 c 0
 66 713 74 710 78 706 c 2
 213 571 l 1
 347 706 l 2
 351 710 360 713 365 713 c 0
 370 713 377 710 381 706 c 0
 385 702 388 694 388 689 c 0
 388 684 385 676 381 672 c 2
 237 527 l 1
 237 270 l 1
 237 193 l 1
 237 78 l 2
 237 65 226 54 213 54 c 0
 200 54 189 65 189 78 c 2
 189 193 l 1
 189 270 l 1
 189 527 l 1
EndSplineSet
EndChar

StartChar: uni16CA
Encoding: 16 5834 16
Width: 343
VWidth: 0
Flags: HW
HStem: 54 48<39.2145 86.8202>
VStem: 39 48<54.2145 101.82>
LayerCount: 2
Fore
SplineSet
64 102 m 0
 77 102 87 92 87 79 c 0
 87 66 77 54 64 54 c 0
 51 54 39 66 39 79 c 0
 39 92 51 102 64 102 c 0
270 713 m 2
 271 713 l 2
 276 713 283 710 287 706 c 0
 291 702 294 694 294 688 c 0
 294 682 291 676 287 672 c 2
 206 590 l 1
 151 535 l 1
 98 481 l 1
 151 428 l 1
 206 373 l 1
 287 292 l 2
 291 288 294 280 294 274 c 0
 294 268 291 261 287 257 c 0
 283 253 276 250 270 250 c 0
 264 250 257 253 253 257 c 2
 172 338 l 1
 116 394 l 1
 63 447 l 1
 46 464 l 2
 42 468 39 476 39 481 c 0
 39 487 42 495 46 499 c 2
 63 516 l 1
 116 569 l 1
 172 625 l 1
 253 706 l 2
 257 710 265 713 270 713 c 2
EndSplineSet
EndChar

StartChar: uni16CF
Encoding: 17 5839 17
Width: 439
VWidth: 0
Flags: HW
HStem: 54 49<194.197 241.803>
VStem: 194 48<54.078 102.928 162.065 631>
LayerCount: 2
Fore
SplineSet
218 103 m 0
 231 103 242 92 242 79 c 0
 242 66 231 54 218 54 c 0
 205 54 194 66 194 79 c 0
 194 92 205 103 218 103 c 0
242 698 m 0
 303 637 388 553 388 553 c 2
 391 550 396 542 396 537 c 0
 396 532 392 523 388 519 c 0
 384 515 376 512 371 512 c 0
 366 512 358 515 354 519 c 2
 242 631 l 1
 242 379 l 1
 242 300 l 1
 242 185 l 2
 242 172 231 162 218 162 c 0
 205 162 194 172 194 185 c 2
 194 300 l 1
 194 379 l 1
 194 631 l 1
 82 519 l 2
 78 515 71 512 66 512 c 0
 61 512 52 515 48 519 c 0
 44 523 41 532 41 537 c 0
 41 542 44 549 48 553 c 2
 48 553 137 641 194 698 c 0
 202 706 209 712 218 712 c 0
 227 712 235 705 242 698 c 0
EndSplineSet
EndChar

StartChar: uni16D2
Encoding: 18 5842 18
Width: 305
VWidth: 0
Flags: HW
HStem: 130 48<133.065 180.922>
VStem: 56 48<54.078 325 441 630> 133 48<130.197 177.803>
LayerCount: 2
Fore
SplineSet
104 630 m 1
 104 573 l 1
 104 496 l 1
 104 441 l 1
 198 536 l 1
 104 630 l 1
156 178 m 0
 169 178 181 167 181 154 c 0
 181 141 169 130 156 130 c 0
 143 130 133 141 133 154 c 0
 133 167 143 178 156 178 c 0
80 713 m 0
 86 713 94 709 98 705 c 2
 248 554 l 1
 250 553 l 2
 254 549 256 541 256 536 c 0
 256 531 254 523 250 519 c 2
 249 518 l 1
 114 383 l 1
 250 248 l 2
 254 244 256 235 256 230 c 0
 256 225 254 217 250 213 c 0
 246 209 238 206 233 206 c 0
 228 206 219 209 215 213 c 2
 104 325 l 1
 104 272 l 1
 104 194 l 1
 104 79 l 2
 104 66 93 54 80 54 c 0
 67 54 56 66 56 79 c 2
 56 194 l 1
 56 272 l 1
 56 347 l 1
 56 420 l 1
 56 496 l 1
 56 573 l 1
 56 688 l 1
 56 689 l 2
 56 702 67 713 80 713 c 0
EndSplineSet
EndChar

StartChar: uni16D6
Encoding: 19 5846 19
Width: 472
VWidth: 0
Flags: HW
HStem: 54 48<361.197 408.803>
VStem: 56 48<53.078 630> 361 48<54.078 101.935 153.065 630>
LayerCount: 2
Fore
SplineSet
385 102 m 0
 398 102 409 92 409 79 c 0
 409 66 398 54 385 54 c 0
 372 54 361 66 361 79 c 0
 361 92 372 102 385 102 c 0
410 690 m 2
 409 573 l 1
 409 517 l 1
 409 495 l 1
 409 445 l 1
 409 419 l 1
 409 370 l 1
 409 347 l 1
 409 291 l 1
 409 271 l 1
 409 176 l 2
 409 163 398 153 385 153 c 0
 372 153 361 163 361 176 c 2
 361 194 l 1
 361 271 l 1
 361 291 l 1
 361 347 l 1
 361 370 l 1
 361 419 l 1
 361 445 l 1
 361 495 l 1
 361 517 l 1
 361 573 l 1
 361 593 l 1
 361 630 l 1
 251 519 l 1
 249 518 l 2
 245 514 238 511 233 511 c 0
 228 511 219 514 215 518 c 2
 104 630 l 1
 104 573 l 1
 104 495 l 1
 104 419 l 1
 104 347 l 1
 104 271 l 1
 104 193 l 1
 104 78 l 2
 104 65 93 53 80 53 c 0
 67 53 56 65 56 78 c 2
 56 193 l 1
 56 271 l 1
 56 347 l 1
 56 419 l 1
 56 495 l 1
 56 573 l 1
 56 689 l 1
 56 690 l 2
 56 702 68 712 80 712 c 0
 86 712 94 709 98 705 c 2
 233 569 l 1
 368 705 l 2
 374 711 385 714 391 712 c 0
 395 711 410 705 410 690 c 2
EndSplineSet
EndChar

StartChar: uni16D7
Encoding: 20 5847 20
Width: 473
VWidth: 0
Flags: HW
HStem: 54 49<361.197 409.786>
VStem: 56 48<54.078 374 441 630> 361 49<54.2145 102.803 154.18 374 440 630>
LayerCount: 2
Fore
SplineSet
103 630 m 1
 103 573 l 1
 103 495 l 1
 103 441 l 1
 198 537 l 1
 103 630 l 1
360 630 m 1
 266 536 l 1
 360 440 l 1
 360 445 l 1
 360 495 l 1
 360 517 l 1
 360 573 l 1
 360 593 l 1
 360 630 l 1
385 103 m 0
 398 103 410 92 410 79 c 0
 410 66 398 54 385 54 c 0
 372 54 361 66 361 79 c 0
 361 92 372 103 385 103 c 0
368 703 m 2
 377 712 388 712 391 711 c 0
 396 710 410 702 410 689 c 2
 410 574 l 1
 410 518 l 1
 410 496 l 1
 410 446 l 1
 410 420 l 1
 410 371 l 1
 410 348 l 1
 410 292 l 1
 410 272 l 1
 410 177 l 2
 410 164 398 154 385 154 c 0
 372 154 361 164 361 177 c 2
 361 195 l 1
 361 272 l 1
 361 292 l 1
 361 348 l 1
 361 371 l 1
 361 374 l 1
 233 502 l 1
 104 374 l 1
 104 348 l 1
 104 272 l 1
 104 194 l 1
 104 79 l 2
 104 66 93 54 80 54 c 0
 67 54 56 66 56 79 c 2
 56 194 l 1
 56 272 l 1
 56 348 l 1
 56 382 l 1
 56 383 l 1
 56 385 l 1
 56 420 l 1
 56 496 l 1
 56 574 l 1
 56 688 l 1
 56 689 l 2
 56 702 67 713 80 713 c 0
 86 713 94 710 98 706 c 2
 233 570 l 1
 368 703 l 2
EndSplineSet
EndChar

StartChar: uni16DA
Encoding: 21 5850 21
Width: 302
VWidth: 0
Flags: HW
HStem: 512 48<208.078 255.935>
VStem: 56 48<54.078 712.922> 208 48<512.197 559.803>
LayerCount: 2
Fore
SplineSet
233 560 m 0
 246 560 256 549 256 536 c 0
 256 523 246 512 233 512 c 0
 220 512 208 523 208 536 c 0
 208 549 220 560 233 560 c 0
80 713 m 0
 93 713 104 701 104 688 c 2
 104 573 l 1
 104 496 l 1
 104 420 l 1
 104 347 l 1
 104 272 l 1
 104 194 l 1
 104 79 l 2
 104 66 93 54 80 54 c 0
 67 54 56 66 56 79 c 2
 56 194 l 1
 56 272 l 1
 56 347 l 1
 56 420 l 1
 56 496 l 1
 56 573 l 1
 56 688 l 2
 56 701 67 713 80 713 c 0
EndSplineSet
EndChar

StartChar: uni16DC
Encoding: 22 5852 22
Width: 445
VWidth: 0
Flags: HW
HStem: 206 48<194.072 241.928>
VStem: 194 48<206.072 253.928>
LayerCount: 2
Fore
SplineSet
218 254 m 0
 231 254 242 243 242 230 c 0
 242 217 231 206 218 206 c 0
 205 206 194 217 194 230 c 0
 194 243 205 254 218 254 c 0
218 560 m 0
 223 560 231 557 235 553 c 2
 237 551 l 1
 388 400 l 6
 392 396 394 388 394 383 c 4
 394 378 392 370 388 366 c 4
 384 362 376 358 371 358 c 0
 366 358 358 362 354 366 c 2
 218 501 l 1
 82 366 l 2
 78 362 71 358 66 358 c 0
 61 358 52 362 48 366 c 0
 44 370 41 378 41 383 c 0
 41 388 44 396 48 400 c 2
 201 553 l 2
 205 557 213 560 218 560 c 0
EndSplineSet
EndChar

StartChar: uni16DE
Encoding: 23 5854 23
Width: 775
VWidth: 0
Flags: HW
HStem: 54 48<665.214 712.82>
VStem: 56 48<137 630> 665 48<54.2145 101.82 365.197 630>
LayerCount: 2
Fore
SplineSet
690 102 m 0
 703 102 713 92 713 79 c 0
 713 66 703 54 690 54 c 0
 677 54 665 66 665 79 c 0
 665 92 677 102 690 102 c 0
104 630 m 1
 104 573 l 1
 104 495 l 1
 104 419 l 1
 104 347 l 1
 104 271 l 1
 104 194 l 1
 104 137 l 1
 225 258 l 1
 239 271 l 1
 307 339 l 1
 351 383 l 1
 239 495 l 1
 104 630 l 1
104 699 m 2
 273 529 l 1
 384 418 l 1
 396 428 l 1
 415 447 l 1
 466 499 l 1
 496 528 l 1
 520 552 l 1
 575 607 l 1
 656 689 l 1
 671 703 l 2
 675 708 684 712 690 712 c 0
 703 712 713 701 713 688 c 2
 713 389 l 2
 713 376 703 365 690 365 c 0
 677 365 665 376 665 389 c 2
 665 630 l 1
 609 573 l 1
 553 518 l 1
 530 495 l 1
 500 465 l 1
 449 414 l 1
 438 402 l 1
 396 360 l 1
 384 349 l 1
 340 305 l 1
 329 294 l 1
 273 238 l 1
 259 223 l 1
 97 61 l 2
 90 56 85 54 79 54 c 0
 74 54 69 56 65 58 c 0
 59 62 56 72 56 79 c 2
 56 194 l 1
 56 271 l 1
 56 347 l 1
 56 419 l 1
 56 495 l 1
 56 573 l 1
 56 687 l 2
 56 696 67 709 80 709 c 0
 91 709 99 704 104 699 c 2
EndSplineSet
EndChar

StartChar: uni16DF
Encoding: 24 5855 24
Width: 441
VWidth: 0
Flags: HWO
HStem: 130 48<343.078 390.935>
VStem: 343 48<130.197 177.803>
LayerCount: 2
Fore
SplineSet
215 578 m 1
 96 459 l 1
 215 341 l 1
 333 459 l 1
 215 578 l 1
385 476 m 2
 390 472 391 464 391 459 c 0
 391 454 389 445 385 441 c 2
 234 291 l 1
 233 290 l 1
 232 290 l 1
 232 289 l 1
 79 136 l 2
 75 132 68 129 63 129 c 0
 58 129 49 132 45 136 c 0
 41 140 38 149 38 154 c 0
 38 159 41 167 45 171 c 2
 180 306 l 1
 45 442 l 2
 41 446 38 454 38 459 c 2
 38 460 l 2
 38 465 41 472 45 476 c 2
 198 629 l 2
 202 633 210 636 215 636 c 0
 220 636 228 633 232 629 c 2
 234 628 l 1
 385 476 l 2
368 178 m 0
 381 178 391 167 391 154 c 0
 391 141 381 130 368 130 c 0
 355 130 343 141 343 154 c 0
 343 167 355 178 368 178 c 0
EndSplineSet
EndChar

